<?xml version="1.0" encoding="UTF-8" standalone="no"?>
<!DOCTYPE svg PUBLIC "-//W3C//DTD SVG 1.1//EN" "http://www.w3.org/Graphics/SVG/1.1/DTD/svg11.dtd">
<svg width="100%" height="100%" viewBox="0 0 652 538" version="1.1" xmlns="http://www.w3.org/2000/svg" xmlns:xlink="http://www.w3.org/1999/xlink" xml:space="preserve" xmlns:serif="http://www.serif.com/" style="fill-rule:evenodd;clip-rule:evenodd;stroke-linejoin:round;stroke-miterlimit:2;">
    <g transform="matrix(1,0,0,1,-180.39,-3087.72)">
        <g transform="matrix(0.296389,0,0,0.477759,48.5843,1736.42)">
            <g transform="matrix(3.43703,0,0,2.13224,324.41,2862.53)">
                <path d="M256,-16C184,-16 114,9 61,41L78,78C125,56 176,47 210,47C281,47 306,85 306,159L306,223C109,224 35,290 35,388C35,459 74,512 153,512C201,512 245,493 306,448C308,482 328,509 377,509C469,509 675,514 675,350C675,287 620,252 544,248L544,244C614,228 654,174 654,112C654,15 552,-16 480,-16C425,-16 381,-6 348,11C327,-8 297,-16 256,-16ZM115,356C115,336 118,318 123,301C160,280 206,272 306,272L306,419C266,436 221,445 193,445C130,445 115,401 115,356ZM389,444L389,272C553,269 591,299 591,369C591,390 588,410 574,444C553,449 533,451 503,451C472,451 427,449 389,444ZM389,223L389,43C399,42 419,41 438,41C541,41 568,73 568,130C568,221 494,230 389,223Z" style="fill-rule:nonzero;"/>
            </g>
        </g>
    </g>
</svg>
